<svg version="1.1" xmlns="http://www.w3.org/2000/svg" xmlns:xlink="http://www.w3.org/1999/xlink" viewBox="0 0 307.34 73.13" preserveAspectRatio="xMidYMin meet">
	<path d="M166.38,76.08a14.16,14.16,0,1,1,14.16-14.16A14.17,14.17,0,0,1,166.38,76.08Zm0-23.35a9.19,9.19,0,1,0,9.18,9.19A9.19,9.19,0,0,0,166.38,52.73Z" transform="translate(-28.08 -28.33)"></path>
	<path d="M228.4,76.08a14.16,14.16,0,1,1,14.16-14.16A14.18,14.18,0,0,1,228.4,76.08Zm0-23.35a9.19,9.19,0,1,0,9.18,9.19A9.2,9.2,0,0,0,228.4,52.73Z" transform="translate(-28.08 -28.33)"></path>
	<path d="M290.41,76.08a14.16,14.16,0,1,1,14.17-14.16A14.17,14.17,0,0,1,290.41,76.08Zm0-23.35a9.19,9.19,0,1,0,9.19,9.19A9.19,9.19,0,0,0,290.41,52.73Z" transform="translate(-28.08 -28.33)"></path>
	<path d="M197.22,76.08a14.16,14.16,0,1,1,0-28.32,13.91,13.91,0,0,1,4.86.86,2.49,2.49,0,1,1-1.71,4.67,9.18,9.18,0,1,0,6,8.63V43.18a2.49,2.49,0,0,1,5,0V61.92A14.17,14.17,0,0,1,197.22,76.08Z" transform="translate(-28.08 -28.33)"></path>
	<path d="M112.75,76.14a2.48,2.48,0,0,1-2.49-2.49V57.28a10.93,10.93,0,0,1,19.38-6.94A10.94,10.94,0,0,1,149,57.28V73.55a2.49,2.49,0,0,1-5,0V57.28a6,6,0,0,0-11.92,0,2.49,2.49,0,0,1-5,0,6,6,0,1,0-11.91,0V73.65A2.49,2.49,0,0,1,112.75,76.14Z" transform="translate(-28.08 -28.33)"></path>
	<path d="M129.64,76a2.49,2.49,0,0,1-2.49-2.49V57.28a2.49,2.49,0,1,1,5,0V73.55A2.48,2.48,0,0,1,129.64,76Z" transform="translate(-28.08 -28.33)"></path>
	<path d="M259.58,76.08a14.18,14.18,0,0,1-14.17-14.16V43.18a2.49,2.49,0,1,1,5,0V61.92a9.19,9.19,0,1,0,6-8.63,2.49,2.49,0,0,1-1.71-4.67,13.92,13.92,0,0,1,4.87-.86,14.16,14.16,0,1,1,0,28.32Z" transform="translate(-28.08 -28.33)"></path>
	<path d="M332.92,76.08a2.49,2.49,0,0,1-2.49-2.49V61.92a9.18,9.18,0,1,0-6,8.62,2.49,2.49,0,1,1,1.7,4.68,14.16,14.16,0,1,1,9.3-13.3V73.59A2.48,2.48,0,0,1,332.92,76.08Z" transform="translate(-28.08 -28.33)"></path>
	<path d="M57.65,57.35,82.73,42.22a29.58,29.58,0,0,0-50.15,0Z" transform="translate(-28.08 -28.33)" class="st0"></path>
	<path d="M57.65,64.88,29.76,48.06A29.59,29.59,0,0,0,57.65,87.48v14L79.37,78a29.53,29.53,0,0,0,6.17-29.91Z" transform="translate(-28.08 -28.33)" class="st0"></path>
</svg>
